<svg id="Lager_1" data-name="Lager 1" xmlns="http://www.w3.org/2000/svg" viewBox="0 0 50 50"><defs><style>.cls-1{fill:#fff;}</style></defs><title>master_play</title><path class="cls-1" d="M14.24,11h0a.59.59,0,0,1,.3.09l11.6,6.69,11.6,6.69a.61.61,0,0,1,0,1.05l-11.6,6.69-11.6,6.69a.59.59,0,0,1-.3.09.61.61,0,0,1-.61-.61V11.61a.61.61,0,0,1,.61-.61m0-2a2.61,2.61,0,0,0-2.61,2.61V38.38a2.6,2.6,0,0,0,3.91,2.26l11.6-6.69,11.6-6.69a2.61,2.61,0,0,0,0-4.51L27.14,16,15.54,9.35A2.59,2.59,0,0,0,14.24,9Z"/></svg>