<svg id="Lager_1" data-name="Lager 1" xmlns="http://www.w3.org/2000/svg" viewBox="0 0 50 50"><title>track_mute</title><path d="M15.73,35a1.25,1.25,0,0,1-1.45,1.17A1.22,1.22,0,0,1,13,34.79a7.76,7.76,0,0,1,.15-1.24l3-17.67c.28-1.54,1.14-2.07,2.13-2.07a1.78,1.78,0,0,1,2,1.42L25,31.33H25l4.69-16.09a1.78,1.78,0,0,1,2-1.42c1,0,1.85.53,2.13,2.07l3,17.67A7.76,7.76,0,0,1,37,34.79a1.22,1.22,0,0,1-1.27,1.39A1.25,1.25,0,0,1,34.27,35L31.7,17.34h-.06L26.39,35.07a1.42,1.42,0,0,1-2.78,0L18.36,17.34H18.3Z"/></svg>